<svg xmlns="http://www.w3.org/2000/svg" width="280.196" height="67.288" viewBox="0 0 280.196 67.288">
  <g id="Group_57" data-name="Group 57" transform="translate(-824.968 -81)">
    <path id="Path_5" data-name="Path 5" d="M3.618-5.31,5.8-11.3h.036L7.974-5.31ZM4.9-12.852-.108,0H1.638l1.44-3.87H8.514L9.918,0h1.89L6.786-12.852Zm15.372,0V0h1.71V-5.49h4.176a2.27,2.27,0,0,1,1.008.189,1.688,1.688,0,0,1,.612.5,2.089,2.089,0,0,1,.342.738q.108.423.18.891a6.274,6.274,0,0,1,.108.954q.018.486.036.909a5.547,5.547,0,0,0,.081.765,1.073,1.073,0,0,0,.243.54h1.908a2.2,2.2,0,0,1-.405-.747,5.855,5.855,0,0,1-.207-.891,8.286,8.286,0,0,1-.09-.954q-.018-.486-.054-.954a8.273,8.273,0,0,0-.153-.9,2.732,2.732,0,0,0-.306-.783,1.973,1.973,0,0,0-.558-.6,2.29,2.29,0,0,0-.909-.36v-.036a2.733,2.733,0,0,0,1.7-1.206,3.9,3.9,0,0,0,.531-2.052,3.1,3.1,0,0,0-1.035-2.466,4.232,4.232,0,0,0-2.871-.9ZM25.542-6.93H21.978v-4.482h4.248a2.219,2.219,0,0,1,1.746.612,2.306,2.306,0,0,1,.54,1.584,2.358,2.358,0,0,1-.243,1.143,1.922,1.922,0,0,1-.648.7,2.474,2.474,0,0,1-.945.351A6.893,6.893,0,0,1,25.542-6.93ZM48.834-8.982h1.71a4.782,4.782,0,0,0-.612-1.809,4.451,4.451,0,0,0-1.17-1.3,5.129,5.129,0,0,0-1.6-.792,6.606,6.606,0,0,0-1.908-.27,6.15,6.15,0,0,0-2.619.531,5.413,5.413,0,0,0-1.908,1.449,6.355,6.355,0,0,0-1.161,2.151,8.574,8.574,0,0,0-.4,2.637,9.062,9.062,0,0,0,.369,2.628,6.07,6.07,0,0,0,1.107,2.124A5.126,5.126,0,0,0,42.5-.225a6.2,6.2,0,0,0,2.61.513A5.416,5.416,0,0,0,49-1.062a5.838,5.838,0,0,0,1.674-3.78H48.96a4.9,4.9,0,0,1-.324,1.476,3.562,3.562,0,0,1-.747,1.179,3.4,3.4,0,0,1-1.134.774,3.815,3.815,0,0,1-1.5.279,4.23,4.23,0,0,1-1.98-.432,3.867,3.867,0,0,1-1.359-1.161,4.973,4.973,0,0,1-.783-1.71,8.328,8.328,0,0,1-.252-2.079A7.445,7.445,0,0,1,41.13-8.46a5.011,5.011,0,0,1,.783-1.665,3.89,3.89,0,0,1,1.35-1.161,4.175,4.175,0,0,1,1.971-.432,3.972,3.972,0,0,1,2.331.684A3.179,3.179,0,0,1,48.834-8.982Zm11.16-3.87V0H61.7V-5.886h6.768V0h1.71V-12.852h-1.71v5.526H61.7v-5.526Zm20.268,0V0h1.71V-12.852Zm14.706,1.44V0h1.71V-11.412h4.284v-1.44H90.684v1.44Zm14.616-1.44V0h8.928V-1.44h-7.218V-5.886h6.678v-1.44h-6.678v-4.086h7.164v-1.44Zm27.234,3.87h1.71a4.782,4.782,0,0,0-.612-1.809,4.451,4.451,0,0,0-1.17-1.3,5.129,5.129,0,0,0-1.6-.792,6.606,6.606,0,0,0-1.908-.27,6.15,6.15,0,0,0-2.619.531,5.412,5.412,0,0,0-1.908,1.449,6.355,6.355,0,0,0-1.161,2.151,8.574,8.574,0,0,0-.4,2.637,9.063,9.063,0,0,0,.369,2.628,6.07,6.07,0,0,0,1.107,2.124,5.126,5.126,0,0,0,1.854,1.413,6.2,6.2,0,0,0,2.61.513,5.416,5.416,0,0,0,3.888-1.35,5.838,5.838,0,0,0,1.674-3.78h-1.71a4.9,4.9,0,0,1-.324,1.476,3.562,3.562,0,0,1-.747,1.179,3.4,3.4,0,0,1-1.134.774,3.815,3.815,0,0,1-1.5.279,4.23,4.23,0,0,1-1.98-.432A3.867,3.867,0,0,1,129.9-2.727a4.973,4.973,0,0,1-.783-1.71,8.328,8.328,0,0,1-.252-2.079,7.445,7.445,0,0,1,.252-1.944,5.011,5.011,0,0,1,.783-1.665,3.89,3.89,0,0,1,1.35-1.161,4.175,4.175,0,0,1,1.971-.432,3.972,3.972,0,0,1,2.331.684A3.179,3.179,0,0,1,136.818-8.982Zm14.076-2.43V0h1.71V-11.412h4.284v-1.44H146.61v1.44ZM175.77-4.644v-8.208h-1.71v8.208a3.642,3.642,0,0,1-.855,2.619,3.3,3.3,0,0,1-2.493.891,3.647,3.647,0,0,1-2.646-.891,3.488,3.488,0,0,1-.918-2.619v-8.208h-1.71v8.208a4.651,4.651,0,0,0,1.4,3.753A5.829,5.829,0,0,0,170.712.288a5.266,5.266,0,0,0,3.744-1.233A4.837,4.837,0,0,0,175.77-4.644Zm9.936-8.208V0h1.71V-5.49h4.176A2.27,2.27,0,0,1,192.6-5.3a1.688,1.688,0,0,1,.612.5,2.09,2.09,0,0,1,.342.738q.108.423.18.891a6.273,6.273,0,0,1,.108.954q.018.486.036.909a5.545,5.545,0,0,0,.081.765A1.073,1.073,0,0,0,194.2,0h1.908a2.2,2.2,0,0,1-.4-.747,5.856,5.856,0,0,1-.207-.891,8.284,8.284,0,0,1-.09-.954q-.018-.486-.054-.954a8.273,8.273,0,0,0-.153-.9,2.731,2.731,0,0,0-.306-.783,1.973,1.973,0,0,0-.558-.6,2.29,2.29,0,0,0-.909-.36v-.036a2.733,2.733,0,0,0,1.7-1.206,3.9,3.9,0,0,0,.531-2.052,3.1,3.1,0,0,0-1.035-2.466,4.232,4.232,0,0,0-2.871-.9ZM190.98-6.93h-3.564v-4.482h4.248a2.219,2.219,0,0,1,1.746.612,2.306,2.306,0,0,1,.54,1.584,2.358,2.358,0,0,1-.243,1.143,1.922,1.922,0,0,1-.648.7,2.474,2.474,0,0,1-.945.351A6.893,6.893,0,0,1,190.98-6.93Zm14.256-5.922V0h8.928V-1.44h-7.218V-5.886h6.678v-1.44h-6.678v-4.086h7.164v-1.44Z" transform="translate(891 148)" fill="#fff"/>
    <g id="Group_56" data-name="Group 56">
      <path id="Path_3" data-name="Path 3" d="M7.308-10.269H1.953a11.786,11.786,0,0,0,1.26,5.135,9.477,9.477,0,0,0,3.024,3.4A12.673,12.673,0,0,0,10.584.126,22.913,22.913,0,0,0,15.75.693,26.462,26.462,0,0,0,20.7.221a13.43,13.43,0,0,0,4.473-1.67A9.6,9.6,0,0,0,28.382-4.6,9.072,9.072,0,0,0,29.61-9.513a7.679,7.679,0,0,0-.913-3.906A8.155,8.155,0,0,0,26.3-16.034,12.839,12.839,0,0,0,22.9-17.7a40.21,40.21,0,0,0-3.937-1.071q-1.89-.441-3.78-.851a21.807,21.807,0,0,1-3.4-1.008,7.8,7.8,0,0,1-2.489-1.512,3.015,3.015,0,0,1-.976-2.3,3.178,3.178,0,0,1,.63-2.048,4.5,4.5,0,0,1,1.638-1.26,8.169,8.169,0,0,1,2.237-.662,15.934,15.934,0,0,1,2.425-.189,12.159,12.159,0,0,1,2.614.283,8.014,8.014,0,0,1,2.363.913,5.363,5.363,0,0,1,1.764,1.67,5.42,5.42,0,0,1,.819,2.614h5.355a11.962,11.962,0,0,0-1.26-4.945,8.478,8.478,0,0,0-2.866-3.15,11.806,11.806,0,0,0-4.126-1.638,25.717,25.717,0,0,0-5.1-.472,17.987,17.987,0,0,0-4.316.535,13.016,13.016,0,0,0-3.906,1.638,9.015,9.015,0,0,0-2.835,2.867,7.8,7.8,0,0,0-1.1,4.221,7.122,7.122,0,0,0,1.575,4.914,10.63,10.63,0,0,0,3.937,2.74A26.641,26.641,0,0,0,13.293-14.9q2.772.535,5.135,1.2a13.4,13.4,0,0,1,3.938,1.733A3.565,3.565,0,0,1,23.94-8.82a3.946,3.946,0,0,1-.756,2.488,4.791,4.791,0,0,1-1.921,1.481,9.7,9.7,0,0,1-2.552.693,19.606,19.606,0,0,1-2.646.189,15.872,15.872,0,0,1-3.182-.315,8.926,8.926,0,0,1-2.772-1.039A5.7,5.7,0,0,1,8.127-7.277,6.028,6.028,0,0,1,7.308-10.269Zm28.413-22.3V12.411h5.355V-4.347H41.2a8.626,8.626,0,0,0,2.174,2.426,11.448,11.448,0,0,0,2.74,1.543,14.873,14.873,0,0,0,2.93.819,16.1,16.1,0,0,0,2.677.252A15.125,15.125,0,0,0,58.243-.63a13.068,13.068,0,0,0,4.662-3.623,15.426,15.426,0,0,0,2.772-5.386,22.978,22.978,0,0,0,.913-6.552,22.265,22.265,0,0,0-.945-6.552,16.556,16.556,0,0,0-2.8-5.449,13.391,13.391,0,0,0-4.662-3.749A14.691,14.691,0,0,0,51.6-33.327,15.521,15.521,0,0,0,45.36-32.1,8.018,8.018,0,0,0,41.2-28.161h-.126v-4.41Zm25.2,16a21.426,21.426,0,0,1-.5,4.662,12.333,12.333,0,0,1-1.638,4.032A8.61,8.61,0,0,1,55.786-5.04a9.156,9.156,0,0,1-4.631,1.071,9.94,9.94,0,0,1-4.725-1.039A9.171,9.171,0,0,1,43.25-7.749a11.459,11.459,0,0,1-1.8-3.937,18.77,18.77,0,0,1-.567-4.63,18.887,18.887,0,0,1,.535-4.473,11.723,11.723,0,0,1,1.732-3.937,9.217,9.217,0,0,1,3.087-2.8,9.2,9.2,0,0,1,4.6-1.071,9.565,9.565,0,0,1,4.5,1.008,8.953,8.953,0,0,1,3.15,2.709,11.987,11.987,0,0,1,1.827,3.875A16.654,16.654,0,0,1,60.921-16.569ZM101.745-.126A7.574,7.574,0,0,1,97.9.693,4.608,4.608,0,0,1,94.594-.472a5.067,5.067,0,0,1-1.229-3.812A12.812,12.812,0,0,1,88.231-.472,16.971,16.971,0,0,1,81.9.693a16.962,16.962,0,0,1-4.189-.5,9.741,9.741,0,0,1-3.434-1.575,7.559,7.559,0,0,1-2.3-2.8,9.432,9.432,0,0,1-.851-4.189,9.567,9.567,0,0,1,.945-4.536,8.244,8.244,0,0,1,2.489-2.866,11.4,11.4,0,0,1,3.528-1.67q1.984-.567,4.063-.945,2.205-.441,4.189-.662a23.34,23.34,0,0,0,3.5-.63,5.826,5.826,0,0,0,2.394-1.2,2.922,2.922,0,0,0,.882-2.3,5.345,5.345,0,0,0-.661-2.835,4.536,4.536,0,0,0-1.7-1.638,6.916,6.916,0,0,0-2.331-.756,17.6,17.6,0,0,0-2.551-.189A11.325,11.325,0,0,0,80.2-27.31q-2.268,1.292-2.457,4.882H72.387a11.567,11.567,0,0,1,1.26-5.1A9.553,9.553,0,0,1,76.671-30.9a12.688,12.688,0,0,1,4.316-1.858,22.791,22.791,0,0,1,5.2-.567,30.488,30.488,0,0,1,4.378.315A11.444,11.444,0,0,1,94.5-31.72a7.549,7.549,0,0,1,2.835,2.74,8.77,8.77,0,0,1,1.071,4.6V-7.623a12.533,12.533,0,0,0,.22,2.772q.22.882,1.48.882a5.3,5.3,0,0,0,1.638-.315ZM93.051-16.821a6.665,6.665,0,0,1-2.646,1.1q-1.638.346-3.434.567t-3.622.5a13.319,13.319,0,0,0-3.276.914,5.959,5.959,0,0,0-2.362,1.8A5.028,5.028,0,0,0,76.8-8.757a4.354,4.354,0,0,0,.535,2.236A4.464,4.464,0,0,0,78.718-5.04a5.815,5.815,0,0,0,1.985.819,11.011,11.011,0,0,0,2.394.252,12.685,12.685,0,0,0,4.536-.724A9.541,9.541,0,0,0,90.72-6.521a7.207,7.207,0,0,0,1.764-2.394,6.055,6.055,0,0,0,.567-2.426Zm35.784-5.292h5.544a12.873,12.873,0,0,0-1.512-5.008,11.179,11.179,0,0,0-3.055-3.5,12.657,12.657,0,0,0-4.284-2.047,19.685,19.685,0,0,0-5.2-.662,15.766,15.766,0,0,0-6.741,1.354,13.454,13.454,0,0,0-4.82,3.717,15.809,15.809,0,0,0-2.867,5.544,23.9,23.9,0,0,0-.945,6.835,21.946,21.946,0,0,0,.977,6.71,14.714,14.714,0,0,0,2.9,5.261A12.767,12.767,0,0,0,113.62-.5,16.965,16.965,0,0,0,120.2.693q6.237,0,9.86-3.276t4.5-9.324h-5.481a9.388,9.388,0,0,1-2.741,5.859,8.763,8.763,0,0,1-6.205,2.079,8.866,8.866,0,0,1-4.347-1.008,8.459,8.459,0,0,1-2.961-2.677,11.82,11.82,0,0,1-1.669-3.811,18.114,18.114,0,0,1-.535-4.41,22.154,22.154,0,0,1,.5-4.756A11.928,11.928,0,0,1,112.8-24.7a8.648,8.648,0,0,1,3.118-2.835,9.985,9.985,0,0,1,4.851-1.071,8.128,8.128,0,0,1,5.418,1.7A8.161,8.161,0,0,1,128.835-22.113ZM163.17-19.4H144.459a11.154,11.154,0,0,1,.819-3.559,9.494,9.494,0,0,1,1.89-2.93,8.656,8.656,0,0,1,2.867-1.984,9.324,9.324,0,0,1,3.748-.724,9.161,9.161,0,0,1,3.686.724,9.272,9.272,0,0,1,2.9,1.953A9.178,9.178,0,0,1,162.319-23,10.956,10.956,0,0,1,163.17-19.4Zm5.166,9.072h-5.292a7.615,7.615,0,0,1-2.867,4.788A9.268,9.268,0,0,1,154.6-3.969a11.092,11.092,0,0,1-4.6-.882,9.014,9.014,0,0,1-3.213-2.363,9.2,9.2,0,0,1-1.827-3.4,12.928,12.928,0,0,1-.5-4.063H168.84a25.931,25.931,0,0,0-.536-6.237,18.055,18.055,0,0,0-2.394-6.048,14.265,14.265,0,0,0-4.6-4.568,13.362,13.362,0,0,0-7.214-1.8,14.811,14.811,0,0,0-6.143,1.26,14.436,14.436,0,0,0-4.851,3.528,16.261,16.261,0,0,0-3.182,5.355,19.6,19.6,0,0,0-1.134,6.8,26.109,26.109,0,0,0,1.1,6.867,14.987,14.987,0,0,0,2.93,5.418,13.351,13.351,0,0,0,4.82,3.528,16.73,16.73,0,0,0,6.772,1.26,14.785,14.785,0,0,0,9.2-2.772A13.016,13.016,0,0,0,168.336-10.332Z" transform="translate(936 114.327)" fill="#fff"/>
      <path id="Path_4" data-name="Path 4" d="M3.968-32.054V0h5.27V-18.1a12.985,12.985,0,0,1,.589-4A9.082,9.082,0,0,1,11.594-25.3,7.847,7.847,0,0,1,14.539-27.4a10.741,10.741,0,0,1,4.185-.744A6.451,6.451,0,0,1,23.5-26.412,6.367,6.367,0,0,1,25.234-21.7V0H30.5V-21.08a19.836,19.836,0,0,0-.527-4.743,8.983,8.983,0,0,0-1.829-3.689,8.664,8.664,0,0,0-3.41-2.418,13.91,13.91,0,0,0-5.27-.868q-7.13,0-10.416,5.828H8.928v-5.084ZM60.7-19.1H42.284a10.977,10.977,0,0,1,.806-3.5,9.343,9.343,0,0,1,1.86-2.883,8.519,8.519,0,0,1,2.821-1.953,9.176,9.176,0,0,1,3.689-.713,9.015,9.015,0,0,1,3.627.713,9.125,9.125,0,0,1,2.852,1.922,9.033,9.033,0,0,1,1.922,2.883A10.782,10.782,0,0,1,60.7-19.1Zm5.084,8.928H60.574a7.494,7.494,0,0,1-2.821,4.712,9.121,9.121,0,0,1-5.487,1.55,10.916,10.916,0,0,1-4.526-.868A8.871,8.871,0,0,1,44.578-7.1a9.057,9.057,0,0,1-1.8-3.348,12.723,12.723,0,0,1-.5-4H66.278a25.52,25.52,0,0,0-.527-6.138A17.768,17.768,0,0,0,63.4-26.536a14.039,14.039,0,0,0-4.526-4.5,13.15,13.15,0,0,0-7.1-1.767,14.576,14.576,0,0,0-6.045,1.24,14.207,14.207,0,0,0-4.774,3.472,16,16,0,0,0-3.131,5.27,19.289,19.289,0,0,0-1.116,6.7,25.694,25.694,0,0,0,1.085,6.758A14.749,14.749,0,0,0,40.672-4.03,13.139,13.139,0,0,0,45.415-.558,16.465,16.465,0,0,0,52.08.682a14.55,14.55,0,0,0,9.052-2.728A12.809,12.809,0,0,0,65.782-10.168ZM103.478,0l10.23-32.054h-5.456L101.06-5.828h-.124l-6.7-26.226H88.474L82.026-5.828H81.9L74.648-32.054H68.82L79.112,0h5.7l6.448-25.482h.124L97.9,0Z" transform="translate(821 113.798)" fill="#ff8d00"/>
    </g>
  </g>
</svg>
