<svg xmlns="http://www.w3.org/2000/svg" width="280.196" height="67.288" viewBox="0 0 280.196 67.288"><g data-name="Group 57"><path data-name="Path 5" d="m69.65 61.69 2.182-5.99h.036l2.138 5.99zm1.282-7.542L65.924 67h1.746l1.44-3.87h5.436L75.95 67h1.89l-5.022-12.852zm15.372 0V67h1.71v-5.49h4.176a2.27 2.27 0 0 1 1.008.189 1.688 1.688 0 0 1 .612.5 2.089 2.089 0 0 1 .342.738q.108.423.18.891a6.274 6.274 0 0 1 .108.954q.018.486.036.909a5.547 5.547 0 0 0 .081.765 1.073 1.073 0 0 0 .243.54h1.908a2.2 2.2 0 0 1-.405-.747 5.855 5.855 0 0 1-.207-.891 8.286 8.286 0 0 1-.09-.954q-.018-.486-.054-.954a8.273 8.273 0 0 0-.153-.9 2.732 2.732 0 0 0-.306-.783 1.973 1.973 0 0 0-.558-.6 2.29 2.29 0 0 0-.909-.36v-.036a2.733 2.733 0 0 0 1.7-1.206 3.9 3.9 0 0 0 .531-2.052 3.1 3.1 0 0 0-1.035-2.466 4.232 4.232 0 0 0-2.871-.9zm5.27 5.922H88.01v-4.482h4.248a2.219 2.219 0 0 1 1.746.612 2.306 2.306 0 0 1 .54 1.584 2.358 2.358 0 0 1-.243 1.143 1.922 1.922 0 0 1-.648.7 2.474 2.474 0 0 1-.945.351 6.893 6.893 0 0 1-1.134.092zm23.292-2.052h1.71a4.782 4.782 0 0 0-.612-1.809 4.451 4.451 0 0 0-1.17-1.3 5.129 5.129 0 0 0-1.6-.792 6.606 6.606 0 0 0-1.908-.27 6.15 6.15 0 0 0-2.619.531 5.413 5.413 0 0 0-1.908 1.449 6.355 6.355 0 0 0-1.161 2.151 8.574 8.574 0 0 0-.4 2.637 9.062 9.062 0 0 0 .369 2.628 6.07 6.07 0 0 0 1.107 2.124 5.126 5.126 0 0 0 1.858 1.408 6.2 6.2 0 0 0 2.61.513 5.416 5.416 0 0 0 3.89-1.35 5.838 5.838 0 0 0 1.674-3.78h-1.714a4.9 4.9 0 0 1-.324 1.476 3.562 3.562 0 0 1-.747 1.179 3.4 3.4 0 0 1-1.134.774 3.815 3.815 0 0 1-1.5.279 4.23 4.23 0 0 1-1.98-.432 3.867 3.867 0 0 1-1.359-1.161 4.973 4.973 0 0 1-.783-1.71 8.328 8.328 0 0 1-.252-2.079 7.445 7.445 0 0 1 .249-1.944 5.011 5.011 0 0 1 .783-1.665 3.89 3.89 0 0 1 1.35-1.161 4.175 4.175 0 0 1 1.971-.432 3.972 3.972 0 0 1 2.331.684 3.179 3.179 0 0 1 1.269 2.052zm11.16-3.87V67h1.706v-5.886h6.768V67h1.71V54.148h-1.71v5.526h-6.768v-5.526zm20.268 0V67h1.71V54.148zM161 55.588V67h1.71V55.588h4.284v-1.44h-10.278v1.44zm14.616-1.44V67h8.928v-1.44h-7.218v-4.446h6.678v-1.44h-6.678v-4.086h7.164v-1.44zm27.234 3.87h1.71a4.782 4.782 0 0 0-.612-1.809 4.451 4.451 0 0 0-1.17-1.3 5.129 5.129 0 0 0-1.6-.792 6.606 6.606 0 0 0-1.908-.27 6.15 6.15 0 0 0-2.619.531 5.412 5.412 0 0 0-1.908 1.449 6.355 6.355 0 0 0-1.161 2.151 8.574 8.574 0 0 0-.4 2.637 9.063 9.063 0 0 0 .369 2.628 6.07 6.07 0 0 0 1.107 2.124 5.126 5.126 0 0 0 1.854 1.413 6.2 6.2 0 0 0 2.61.513 5.416 5.416 0 0 0 3.888-1.35 5.838 5.838 0 0 0 1.674-3.78h-1.71a4.9 4.9 0 0 1-.324 1.476 3.562 3.562 0 0 1-.747 1.179 3.4 3.4 0 0 1-1.134.774 3.815 3.815 0 0 1-1.5.279 4.23 4.23 0 0 1-1.98-.432 3.867 3.867 0 0 1-1.357-1.166 4.973 4.973 0 0 1-.783-1.71 8.328 8.328 0 0 1-.252-2.079 7.445 7.445 0 0 1 .252-1.944 5.011 5.011 0 0 1 .783-1.665 3.89 3.89 0 0 1 1.35-1.161 4.175 4.175 0 0 1 1.971-.432 3.972 3.972 0 0 1 2.331.684 3.179 3.179 0 0 1 1.266 2.052zm14.076-2.43V67h1.71V55.588h4.284v-1.44h-10.278v1.44zm24.876 6.768v-8.208h-1.71v8.208a3.642 3.642 0 0 1-.855 2.619 3.3 3.3 0 0 1-2.493.891 3.647 3.647 0 0 1-2.646-.891 3.488 3.488 0 0 1-.918-2.619v-8.208h-1.71v8.208a4.651 4.651 0 0 0 1.4 3.753 5.829 5.829 0 0 0 3.874 1.179 5.266 5.266 0 0 0 3.744-1.233 4.837 4.837 0 0 0 1.314-3.699zm9.936-8.208V67h1.71v-5.49h4.176a2.27 2.27 0 0 1 1.008.19 1.688 1.688 0 0 1 .612.5 2.09 2.09 0 0 1 .342.738q.108.423.18.891a6.273 6.273 0 0 1 .108.954q.018.486.036.909a5.545 5.545 0 0 0 .081.765 1.073 1.073 0 0 0 .241.543h1.908a2.2 2.2 0 0 1-.4-.747 5.856 5.856 0 0 1-.207-.891 8.284 8.284 0 0 1-.09-.954q-.018-.486-.054-.954a8.273 8.273 0 0 0-.153-.9 2.731 2.731 0 0 0-.306-.783 1.973 1.973 0 0 0-.558-.6 2.29 2.29 0 0 0-.909-.36v-.036a2.733 2.733 0 0 0 1.7-1.206 3.9 3.9 0 0 0 .531-2.052 3.1 3.1 0 0 0-1.035-2.466 4.232 4.232 0 0 0-2.871-.9zm5.274 5.922h-3.564v-4.482h4.248a2.219 2.219 0 0 1 1.746.612 2.306 2.306 0 0 1 .54 1.584 2.358 2.358 0 0 1-.243 1.143 1.922 1.922 0 0 1-.648.7 2.474 2.474 0 0 1-.945.351 6.893 6.893 0 0 1-1.134.092zm14.256-5.922V67h8.928v-1.44h-7.218v-4.446h6.678v-1.44h-6.678v-4.086h7.164v-1.44z" fill="#fff"/><g data-name="Group 56"><path data-name="Path 3" d="M118.34 23.058h-5.355a11.786 11.786 0 0 0 1.26 5.135 9.477 9.477 0 0 0 3.024 3.4 12.673 12.673 0 0 0 4.347 1.86 22.913 22.913 0 0 0 5.166.567 26.462 26.462 0 0 0 4.95-.472 13.43 13.43 0 0 0 4.473-1.67 9.6 9.6 0 0 0 3.209-3.151 9.072 9.072 0 0 0 1.228-4.913 7.679 7.679 0 0 0-.913-3.906 8.155 8.155 0 0 0-2.397-2.615 12.839 12.839 0 0 0-3.4-1.666 40.21 40.21 0 0 0-3.937-1.071q-1.89-.441-3.78-.851a21.807 21.807 0 0 1-3.4-1.008 7.8 7.8 0 0 1-2.489-1.512 3.015 3.015 0 0 1-.976-2.3 3.178 3.178 0 0 1 .63-2.048 4.5 4.5 0 0 1 1.638-1.26 8.169 8.169 0 0 1 2.237-.662 15.934 15.934 0 0 1 2.425-.189 12.159 12.159 0 0 1 2.614.283 8.014 8.014 0 0 1 2.363.913 5.363 5.363 0 0 1 1.764 1.67 5.42 5.42 0 0 1 .819 2.614h5.355a11.962 11.962 0 0 0-1.26-4.945 8.478 8.478 0 0 0-2.866-3.15 11.806 11.806 0 0 0-4.126-1.638 25.717 25.717 0 0 0-5.1-.472 17.987 17.987 0 0 0-4.316.535 13.016 13.016 0 0 0-3.906 1.638 9.015 9.015 0 0 0-2.835 2.867 7.8 7.8 0 0 0-1.1 4.221 7.122 7.122 0 0 0 1.575 4.914 10.63 10.63 0 0 0 3.937 2.74 26.641 26.641 0 0 0 5.127 1.511q2.772.535 5.135 1.2a13.4 13.4 0 0 1 3.938 1.733 3.565 3.565 0 0 1 1.574 3.147 3.946 3.946 0 0 1-.756 2.488 4.791 4.791 0 0 1-1.921 1.481 9.7 9.7 0 0 1-2.552.693 19.606 19.606 0 0 1-2.646.189 15.872 15.872 0 0 1-3.182-.315 8.926 8.926 0 0 1-2.772-1.039 5.7 5.7 0 0 1-1.984-1.954 6.028 6.028 0 0 1-.819-2.992zm28.413-22.3v44.98h5.355V28.98h.124a8.626 8.626 0 0 0 2.174 2.426 11.448 11.448 0 0 0 2.74 1.543 14.873 14.873 0 0 0 2.93.819 16.1 16.1 0 0 0 2.677.252 15.125 15.125 0 0 0 6.522-1.323 13.068 13.068 0 0 0 4.662-3.623 15.426 15.426 0 0 0 2.772-5.386 22.978 22.978 0 0 0 .913-6.552 22.265 22.265 0 0 0-.945-6.552 16.556 16.556 0 0 0-2.8-5.449 13.391 13.391 0 0 0-4.662-3.749A14.691 14.691 0 0 0 162.632 0a15.521 15.521 0 0 0-6.24 1.227 8.018 8.018 0 0 0-4.16 3.939h-.126V.756zm25.2 16a21.426 21.426 0 0 1-.5 4.662 12.333 12.333 0 0 1-1.638 4.032 8.61 8.61 0 0 1-2.997 2.835 9.156 9.156 0 0 1-4.631 1.071 9.94 9.94 0 0 1-4.725-1.039 9.171 9.171 0 0 1-3.18-2.741 11.459 11.459 0 0 1-1.8-3.937 18.77 18.77 0 0 1-.567-4.63 18.887 18.887 0 0 1 .535-4.473 11.723 11.723 0 0 1 1.732-3.937 9.217 9.217 0 0 1 3.087-2.8 9.2 9.2 0 0 1 4.6-1.071 9.565 9.565 0 0 1 4.5 1.008 8.953 8.953 0 0 1 3.15 2.709 11.987 11.987 0 0 1 1.827 3.875 16.654 16.654 0 0 1 .607 4.436zm40.824 16.443a7.574 7.574 0 0 1-3.845.819 4.608 4.608 0 0 1-3.306-1.165 5.067 5.067 0 0 1-1.229-3.812 12.812 12.812 0 0 1-5.134 3.812 16.971 16.971 0 0 1-6.331 1.165 16.962 16.962 0 0 1-4.189-.5 9.741 9.741 0 0 1-3.434-1.575 7.559 7.559 0 0 1-2.3-2.8 9.432 9.432 0 0 1-.851-4.189 9.567 9.567 0 0 1 .945-4.536 8.244 8.244 0 0 1 2.489-2.866 11.4 11.4 0 0 1 3.528-1.67q1.984-.567 4.063-.945 2.205-.441 4.189-.662a23.34 23.34 0 0 0 3.5-.63 5.826 5.826 0 0 0 2.394-1.2 2.922 2.922 0 0 0 .882-2.3 5.345 5.345 0 0 0-.661-2.835 4.536 4.536 0 0 0-1.7-1.638 6.916 6.916 0 0 0-2.331-.756 17.6 17.6 0 0 0-2.551-.189 11.325 11.325 0 0 0-5.673 1.288q-2.268 1.292-2.457 4.882h-5.356a11.567 11.567 0 0 1 1.26-5.1 9.553 9.553 0 0 1 3.024-3.372 12.688 12.688 0 0 1 4.316-1.858 22.791 22.791 0 0 1 5.2-.567 30.488 30.488 0 0 1 4.378.315 11.444 11.444 0 0 1 3.935 1.29 7.549 7.549 0 0 1 2.835 2.74 8.77 8.77 0 0 1 1.071 4.6v16.757a12.533 12.533 0 0 0 .22 2.772q.22.882 1.48.882a5.3 5.3 0 0 0 1.638-.315zm-8.694-16.695a6.665 6.665 0 0 1-2.646 1.1q-1.638.346-3.434.567t-3.622.5a13.319 13.319 0 0 0-3.276.914 5.959 5.959 0 0 0-2.362 1.8 5.028 5.028 0 0 0-.911 3.183 4.354 4.354 0 0 0 .535 2.236 4.464 4.464 0 0 0 1.383 1.481 5.815 5.815 0 0 0 1.985.819 11.011 11.011 0 0 0 2.394.252 12.685 12.685 0 0 0 4.536-.724 9.541 9.541 0 0 0 3.087-1.828 7.207 7.207 0 0 0 1.764-2.394 6.055 6.055 0 0 0 .567-2.426zm35.784-5.292h5.544a12.873 12.873 0 0 0-1.512-5.008 11.179 11.179 0 0 0-3.055-3.5A12.657 12.657 0 0 0 236.56.659a19.685 19.685 0 0 0-5.2-.662 15.766 15.766 0 0 0-6.741 1.354 13.454 13.454 0 0 0-4.82 3.717 15.809 15.809 0 0 0-2.867 5.544 23.9 23.9 0 0 0-.945 6.835 21.946 21.946 0 0 0 .977 6.71 14.714 14.714 0 0 0 2.9 5.261 12.767 12.767 0 0 0 4.788 3.409 16.965 16.965 0 0 0 6.58 1.193q6.237 0 9.86-3.276t4.5-9.324h-5.481a9.388 9.388 0 0 1-2.741 5.859 8.763 8.763 0 0 1-6.205 2.079 8.866 8.866 0 0 1-4.347-1.008 8.459 8.459 0 0 1-2.961-2.677 11.82 11.82 0 0 1-1.669-3.811 18.114 18.114 0 0 1-.535-4.41 22.154 22.154 0 0 1 .5-4.756 11.928 11.928 0 0 1 1.679-4.069 8.648 8.648 0 0 1 3.118-2.835 9.985 9.985 0 0 1 4.851-1.071 8.128 8.128 0 0 1 5.418 1.7 8.161 8.161 0 0 1 2.648 4.793zm34.335 2.713h-18.711a11.154 11.154 0 0 1 .819-3.559 9.494 9.494 0 0 1 1.89-2.93 8.656 8.656 0 0 1 2.867-1.984 9.324 9.324 0 0 1 3.748-.724 9.161 9.161 0 0 1 3.686.724 9.272 9.272 0 0 1 2.9 1.953 9.178 9.178 0 0 1 1.95 2.92 10.956 10.956 0 0 1 .851 3.6zm5.166 9.072h-5.292a7.615 7.615 0 0 1-2.867 4.788 9.268 9.268 0 0 1-5.577 1.571 11.092 11.092 0 0 1-4.6-.882 9.014 9.014 0 0 1-3.213-2.363 9.2 9.2 0 0 1-1.827-3.4 12.928 12.928 0 0 1-.5-4.063h24.38a25.931 25.931 0 0 0-.536-6.237 18.055 18.055 0 0 0-2.394-6.048 14.265 14.265 0 0 0-4.6-4.568 13.362 13.362 0 0 0-7.214-1.8 14.811 14.811 0 0 0-6.143 1.26 14.436 14.436 0 0 0-4.851 3.528 16.261 16.261 0 0 0-3.182 5.355 19.6 19.6 0 0 0-1.134 6.8 26.109 26.109 0 0 0 1.1 6.867 14.987 14.987 0 0 0 2.93 5.418 13.351 13.351 0 0 0 4.82 3.528 16.73 16.73 0 0 0 6.772 1.26 14.785 14.785 0 0 0 9.2-2.772 13.016 13.016 0 0 0 4.728-8.246z" fill="#fff"/><path data-name="Path 4" d="M0 .744v32.054h5.27v-18.1a12.985 12.985 0 0 1 .589-4 9.082 9.082 0 0 1 1.767-3.2 7.847 7.847 0 0 1 2.945-2.1 10.741 10.741 0 0 1 4.185-.744 6.451 6.451 0 0 1 4.776 1.732 6.367 6.367 0 0 1 1.734 4.712v21.7h5.266v-21.08a19.836 19.836 0 0 0-.527-4.743 8.983 8.983 0 0 0-1.829-3.689 8.664 8.664 0 0 0-3.41-2.418A13.91 13.91 0 0 0 15.496 0Q8.366 0 5.08 5.828h-.12V.744zm56.732 12.954H38.316a10.977 10.977 0 0 1 .806-3.5 9.343 9.343 0 0 1 1.86-2.883 8.519 8.519 0 0 1 2.821-1.953 9.176 9.176 0 0 1 3.689-.713 9.015 9.015 0 0 1 3.627.713 9.125 9.125 0 0 1 2.852 1.922 9.033 9.033 0 0 1 1.922 2.883 10.782 10.782 0 0 1 .839 3.531zm5.084 8.928h-5.21a7.494 7.494 0 0 1-2.821 4.712 9.121 9.121 0 0 1-5.487 1.55 10.916 10.916 0 0 1-4.526-.868 8.871 8.871 0 0 1-3.162-2.322 9.057 9.057 0 0 1-1.8-3.348 12.723 12.723 0 0 1-.5-4h24a25.52 25.52 0 0 0-.527-6.138 17.768 17.768 0 0 0-2.351-5.95 14.039 14.039 0 0 0-4.526-4.5 13.15 13.15 0 0 0-7.1-1.767 14.576 14.576 0 0 0-6.045 1.24 14.207 14.207 0 0 0-4.774 3.472 16 16 0 0 0-3.131 5.27 19.289 19.289 0 0 0-1.116 6.7 25.694 25.694 0 0 0 1.085 6.758 14.749 14.749 0 0 0 2.879 5.333 13.139 13.139 0 0 0 4.743 3.472 16.465 16.465 0 0 0 6.665 1.24 14.55 14.55 0 0 0 9.052-2.728 12.809 12.809 0 0 0 4.65-8.122zM99.51 32.798 109.74.744h-5.456L97.092 26.97h-.124L90.268.744h-5.762L78.058 26.97h-.126L70.68.744h-5.828l10.292 32.054h5.7l6.448-25.482h.124l6.516 25.482z" fill="#ff8d00"/></g></g></svg>