<svg xmlns="http://www.w3.org/2000/svg" width="228.134" height="224.5" viewBox="0 0 228.134 224.5"><g data-name="Group 16"><g data-name="Group 15"><path data-name="Path 1" d="M228.134 96.254v125.344a2.914 2.914 0 0 1-2.921 2.9h-45.606a2.914 2.914 0 0 1-2.921-2.9v-102.77l-48.01-40.35v143.12a2.9 2.9 0 0 1-2.9 2.9H45.457a2.918 2.918 0 0 1-2.94-2.9V116.275a2.832 2.832 0 0 1 1.083-2.244l3.056-2.572a2.927 2.927 0 0 1 4.8 2.224v101.938l68.339-.019-.02-150.007a2.9 2.9 0 0 1 4.8-2.225l60 50.447a2.875 2.875 0 0 1 1.045 2.224v99.579l33.638-.019-.039-116.562-105.012-88.301-105.3 88.553.019 122.307a2.9 2.9 0 0 1-2.921 2.9H2.929a2.914 2.914 0 0 1-2.921-2.9V96.487a2.936 2.936 0 0 1 1.045-2.225L112.334.679a2.9 2.9 0 0 1 3.753.019L227.09 94.015a2.945 2.945 0 0 1 1.044 2.239z" fill="#fff"/></g></g></svg>